<svg width="211" height="20" viewBox="0 0 211 20" fill="none" xmlns="http://www.w3.org/2000/svg">
<path d="M11.7258 19.2335V0.663226H14.9093V19.2335H11.7258ZM8.81068e-06 19.2335V0.663226H3.18348V19.2335H8.81068e-06ZM2.70596 11.0626V8.46273H12.336V11.0626H2.70596ZM18.7056 19.2335V5.8629H21.8891V19.2335H18.7056ZM20.2973 3.74058C19.7137 3.74058 19.2273 3.56372 18.8382 3.21C18.4668 2.8386 18.2811 2.38761 18.2811 1.85703C18.2811 1.30876 18.4668 0.866614 18.8382 0.530582C19.2273 0.176863 19.7137 3.51598e-06 20.2973 3.51598e-06C20.881 3.51598e-06 21.3585 0.176863 21.7299 0.530582C22.119 0.866614 22.3135 1.30876 22.3135 1.85703C22.3135 2.38761 22.119 2.8386 21.7299 3.21C21.3585 3.56372 20.881 3.74058 20.2973 3.74058ZM25.5679 19.2335V5.8629H28.4065L28.6983 8.35661C29.0166 7.77298 29.4146 7.27777 29.8921 6.871C30.3696 6.44653 30.9267 6.11934 31.5634 5.88942C32.2178 5.65951 32.9341 5.54455 33.7123 5.54455V8.91372H32.598C32.0675 8.91372 31.5634 8.98447 31.0859 9.12595C30.6084 9.24976 30.1928 9.46199 29.839 9.76265C29.503 10.0456 29.2377 10.4436 29.0432 10.9564C28.8486 11.4517 28.7514 12.0795 28.7514 12.84V19.2335H25.5679ZM42.0614 19.5518C40.788 19.5518 39.6384 19.26 38.6127 18.6764C37.6046 18.075 36.8087 17.2526 36.225 16.2092C35.6591 15.148 35.3761 13.9365 35.3761 12.5747C35.3761 11.1775 35.6679 9.95719 36.2516 8.91372C36.8352 7.85257 37.6311 7.03017 38.6392 6.44653C39.665 5.84521 40.8146 5.54455 42.0879 5.54455C43.3613 5.54455 44.5021 5.84521 45.5102 6.44653C46.536 7.03017 47.3318 7.84372 47.8978 8.88719C48.4814 9.93066 48.7732 11.151 48.7732 12.5482C48.7732 13.9454 48.4814 15.1657 47.8978 16.2092C47.3141 17.2526 46.5094 18.075 45.4836 18.6764C44.4755 19.26 43.3348 19.5518 42.0614 19.5518ZM42.0614 16.8193C42.6981 16.8193 43.2729 16.6602 43.7858 16.3418C44.3164 16.0235 44.7408 15.546 45.0592 14.9093C45.3775 14.2726 45.5367 13.4855 45.5367 12.5482C45.5367 11.6108 45.3775 10.8326 45.0592 10.2136C44.7585 9.57695 44.3429 9.09942 43.8123 8.78108C43.2994 8.46273 42.7246 8.30356 42.0879 8.30356C41.4689 8.30356 40.8941 8.46273 40.3636 8.78108C39.833 9.09942 39.4085 9.57695 39.0902 10.2136C38.7718 10.8326 38.6127 11.6108 38.6127 12.5482C38.6127 13.4855 38.7718 14.2726 39.0902 14.9093C39.4085 15.546 39.8241 16.0235 40.337 16.3418C40.8676 16.6602 41.4424 16.8193 42.0614 16.8193ZM57.2219 19.5518C56.0369 19.5518 55.0023 19.3661 54.118 18.9947C53.2514 18.6056 52.5616 18.075 52.0487 17.403C51.5535 16.7132 51.2617 15.9262 51.1733 15.0419H54.3567C54.4452 15.4133 54.6043 15.7582 54.8343 16.0765C55.0642 16.3772 55.3737 16.616 55.7628 16.7928C56.1696 16.9697 56.6471 17.0581 57.1953 17.0581C57.7259 17.0581 58.1592 16.9874 58.4953 16.8459C58.8313 16.6867 59.0789 16.4833 59.2381 16.2357C59.3972 15.9881 59.4768 15.7228 59.4768 15.4398C59.4768 15.0154 59.3619 14.6882 59.1319 14.4583C58.902 14.2284 58.566 14.0515 58.1238 13.9277C57.6994 13.7862 57.1865 13.6536 56.5852 13.5298C55.9485 13.406 55.3295 13.2556 54.7281 13.0788C54.1445 12.8842 53.6139 12.6455 53.1364 12.3625C52.6766 12.0795 52.3052 11.7169 52.0222 11.2748C51.7569 10.8326 51.6243 10.2932 51.6243 9.65653C51.6243 8.87835 51.8277 8.17976 52.2344 7.56075C52.6589 6.94174 53.2602 6.45538 54.0384 6.10166C54.8343 5.73025 55.7805 5.54455 56.877 5.54455C58.4334 5.54455 59.6714 5.90711 60.591 6.63223C61.5284 7.33967 62.0767 8.33893 62.2358 9.63H59.2115C59.1231 9.1348 58.8755 8.75455 58.4687 8.48926C58.0619 8.20628 57.5225 8.0648 56.8505 8.0648C56.1607 8.0648 55.6301 8.19744 55.2587 8.46273C54.905 8.71033 54.7281 9.04637 54.7281 9.47083C54.7281 9.73612 54.8343 9.98372 55.0465 10.2136C55.2764 10.4259 55.6036 10.6116 56.0281 10.7707C56.4525 10.9122 56.9743 11.0537 57.5933 11.1952C58.5837 11.3898 59.4591 11.6197 60.2196 11.885C60.9801 12.1503 61.5815 12.5393 62.0236 13.0522C62.4658 13.5651 62.6868 14.2903 62.6868 15.2276C62.7045 16.0765 62.4834 16.8282 62.0236 17.4826C61.5815 18.1369 60.9536 18.6498 60.14 19.0212C59.3265 19.375 58.3538 19.5518 57.2219 19.5518ZM65.7758 19.2335V0.132648H68.9593V7.93215C69.4014 7.20703 70.0027 6.63224 70.7632 6.20777C71.5237 5.76562 72.3815 5.54455 73.3365 5.54455C74.4331 5.54455 75.3616 5.77447 76.1221 6.2343C76.8826 6.67645 77.4574 7.33967 77.8464 8.22397C78.2532 9.09058 78.4566 10.1783 78.4566 11.487V19.2335H75.2997V11.7788C75.2997 10.6293 75.0521 9.75381 74.5569 9.15248C74.0793 8.55116 73.3454 8.2505 72.355 8.2505C71.7183 8.2505 71.1435 8.40967 70.6306 8.72802C70.1177 9.02868 69.7109 9.47083 69.4102 10.0545C69.1096 10.6204 68.9593 11.319 68.9593 12.1503V19.2335H65.7758ZM81.9709 19.2335V5.8629H85.1543V19.2335H81.9709ZM83.5626 3.74058C82.979 3.74058 82.4926 3.56372 82.1035 3.21C81.7321 2.8386 81.5464 2.38761 81.5464 1.85703C81.5464 1.30876 81.7321 0.866614 82.1035 0.530582C82.4926 0.176863 82.979 3.51598e-06 83.5626 3.51598e-06C84.1462 3.51598e-06 84.6238 0.176863 84.9952 0.530582C85.3843 0.866614 85.5788 1.30876 85.5788 1.85703C85.5788 2.38761 85.3843 2.8386 84.9952 3.21C84.6238 3.56372 84.1462 3.74058 83.5626 3.74058ZM87.9312 19.2335L94.7756 0.663226H96.6857L103.53 19.2335H101.567L95.7307 3.10389L89.8678 19.2335H87.9312ZM91.0616 14.2195L91.6187 12.6808H99.8161L100.373 14.2195H91.0616ZM106.297 19.2335V5.8629H107.995L108.128 8.4362C108.411 7.81719 108.791 7.29546 109.268 6.871C109.746 6.44653 110.321 6.11934 110.993 5.88942C111.665 5.65951 112.425 5.54455 113.274 5.54455V7.48116H112.558C111.992 7.48116 111.444 7.56075 110.913 7.71992C110.383 7.86141 109.914 8.10901 109.507 8.46273C109.1 8.81645 108.773 9.29397 108.525 9.89529C108.278 10.4966 108.154 11.2483 108.154 12.1503V19.2335H106.297ZM121.202 19.5518C119.964 19.5518 118.859 19.26 117.886 18.6764C116.913 18.0927 116.144 17.2792 115.578 16.2357C115.012 15.1745 114.729 13.9542 114.729 12.5747C114.729 11.1422 115.012 9.91298 115.578 8.88719C116.144 7.84372 116.913 7.03017 117.886 6.44653C118.876 5.84521 119.982 5.54455 121.202 5.54455C122.759 5.54455 124.05 5.95133 125.075 6.76488C126.119 7.56075 126.782 8.6219 127.065 9.94835H125.208C125.013 9.06405 124.545 8.38314 123.802 7.90562C123.077 7.41042 122.201 7.16281 121.176 7.16281C120.38 7.16281 119.637 7.3662 118.947 7.77298C118.257 8.16207 117.7 8.75455 117.276 9.55042C116.851 10.3463 116.639 11.3544 116.639 12.5747C116.639 13.4767 116.763 14.2637 117.011 14.9358C117.258 15.6079 117.594 16.1738 118.019 16.6336C118.443 17.0758 118.93 17.4118 119.478 17.6417C120.026 17.8717 120.592 17.9866 121.176 17.9866C121.848 17.9866 122.458 17.8805 123.006 17.6683C123.572 17.4384 124.05 17.1112 124.439 16.6867C124.828 16.2622 125.084 15.7493 125.208 15.148H127.065C126.8 16.4391 126.145 17.5003 125.102 18.3315C124.058 19.145 122.759 19.5518 121.202 19.5518ZM130.261 19.2335V0.132648H132.118V8.2505C132.578 7.40157 133.215 6.73835 134.028 6.26083C134.842 5.78331 135.735 5.54455 136.708 5.54455C137.716 5.54455 138.591 5.74794 139.334 6.15471C140.095 6.56149 140.678 7.1805 141.085 8.01174C141.509 8.84298 141.722 9.90414 141.722 11.1952V19.2335H139.891V11.4074C139.891 9.97488 139.591 8.91372 138.989 8.22397C138.406 7.51653 137.539 7.16281 136.389 7.16281C135.593 7.16281 134.868 7.35736 134.214 7.74645C133.577 8.13554 133.064 8.70149 132.675 9.4443C132.304 10.1694 132.118 11.0714 132.118 12.1503V19.2335H130.261ZM145.501 19.2335V5.8629H147.331V19.2335H145.501ZM146.429 2.70595C146.058 2.70595 145.74 2.58215 145.474 2.33455C145.209 2.06926 145.076 1.74207 145.076 1.35298C145.076 0.946202 145.2 0.627855 145.448 0.397937C145.713 0.150334 146.031 0.0265321 146.403 0.0265321C146.774 0.0265321 147.093 0.150334 147.358 0.397937C147.623 0.627855 147.756 0.946202 147.756 1.35298C147.756 1.74207 147.623 2.06926 147.358 2.33455C147.11 2.58215 146.801 2.70595 146.429 2.70595ZM156.443 19.2335C155.682 19.2335 155.028 19.1185 154.479 18.8886C153.931 18.641 153.507 18.2431 153.206 17.6948C152.923 17.1288 152.782 16.3595 152.782 15.3868V7.45463H150.447V5.8629H152.782L153.047 2.75901H154.639V5.88942H158.644V7.45463H154.639V15.3868C154.639 16.2711 154.815 16.8724 155.169 17.1907C155.523 17.4914 156.151 17.6417 157.053 17.6417H158.432V19.2335H156.443ZM166.899 19.5518C165.661 19.5518 164.564 19.26 163.609 18.6764C162.672 18.0927 161.929 17.2792 161.381 16.2357C160.85 15.1745 160.585 13.9365 160.585 12.5217C160.585 11.1068 160.85 9.87761 161.381 8.83414C161.911 7.79066 162.654 6.98595 163.609 6.42C164.582 5.83637 165.696 5.54455 166.952 5.54455C168.243 5.54455 169.33 5.83637 170.215 6.42C171.117 7.00364 171.798 7.76414 172.257 8.70149C172.735 9.63885 172.974 10.6646 172.974 11.7788C172.974 11.9557 172.974 12.1414 172.974 12.336C172.974 12.5128 172.965 12.725 172.947 12.9726H161.991V11.4074H171.17C171.134 10.0456 170.71 8.99331 169.896 8.2505C169.101 7.50769 168.092 7.13628 166.872 7.13628C166.076 7.13628 165.333 7.32199 164.644 7.69339C163.972 8.04711 163.423 8.57769 162.999 9.28513C162.592 9.97488 162.389 10.8503 162.389 11.9115V12.6012C162.389 13.8039 162.601 14.8031 163.025 15.599C163.45 16.3949 164.007 16.9874 164.697 17.3764C165.404 17.7655 166.138 17.9601 166.899 17.9601C167.907 17.9601 168.738 17.739 169.392 17.2969C170.047 16.837 170.515 16.2092 170.798 15.4133H172.629C172.399 16.1915 172.028 16.8989 171.515 17.5356C171.019 18.1723 170.383 18.6675 169.605 19.0212C168.826 19.375 167.924 19.5518 166.899 19.5518ZM181.903 19.5518C180.665 19.5518 179.559 19.26 178.587 18.6764C177.614 18.0927 176.844 17.2792 176.278 16.2357C175.713 15.1745 175.43 13.9542 175.43 12.5747C175.43 11.1422 175.713 9.91298 176.278 8.88719C176.844 7.84372 177.614 7.03017 178.587 6.44653C179.577 5.84521 180.682 5.54455 181.903 5.54455C183.459 5.54455 184.75 5.95133 185.776 6.76488C186.819 7.56075 187.483 8.6219 187.766 9.94835H185.908C185.714 9.06405 185.245 8.38314 184.502 7.90562C183.777 7.41042 182.902 7.16281 181.876 7.16281C181.08 7.16281 180.337 7.3662 179.648 7.77298C178.958 8.16207 178.401 8.75455 177.976 9.55042C177.552 10.3463 177.34 11.3544 177.34 12.5747C177.34 13.4767 177.463 14.2637 177.711 14.9358C177.959 15.6079 178.295 16.1738 178.719 16.6336C179.144 17.0758 179.63 17.4118 180.178 17.6417C180.727 17.8717 181.292 17.9866 181.876 17.9866C182.548 17.9866 183.158 17.8805 183.707 17.6683C184.273 17.4384 184.75 17.1112 185.139 16.6867C185.528 16.2622 185.785 15.7493 185.908 15.148H187.766C187.5 16.4391 186.846 17.5003 185.802 18.3315C184.759 19.145 183.459 19.5518 181.903 19.5518ZM195.614 19.2335C194.854 19.2335 194.199 19.1185 193.651 18.8886C193.103 18.641 192.678 18.2431 192.378 17.6948C192.095 17.1288 191.953 16.3595 191.953 15.3868V7.45463H189.619V5.8629H191.953L192.218 2.75901H193.81V5.88942H197.816V7.45463H193.81V15.3868C193.81 16.2711 193.987 16.8724 194.341 17.1907C194.694 17.4914 195.322 17.6417 196.224 17.6417H197.604V19.2335H195.614ZM205.611 19.5518C204.549 19.5518 203.612 19.375 202.799 19.0212C202.003 18.6675 201.357 18.1635 200.862 17.5091C200.384 16.837 200.093 16.0412 199.986 15.1215H201.897C202.003 15.6344 202.206 16.1031 202.507 16.5275C202.825 16.952 203.249 17.2969 203.78 17.5622C204.311 17.8098 204.939 17.9336 205.664 17.9336C206.336 17.9336 206.884 17.8363 207.308 17.6417C207.751 17.4295 208.078 17.1554 208.29 16.8193C208.52 16.4656 208.635 16.0765 208.635 15.6521C208.635 15.0684 208.493 14.6174 208.21 14.2991C207.945 13.9631 207.556 13.7155 207.043 13.5563C206.53 13.3971 205.911 13.2468 205.186 13.1053C204.585 12.9992 204.01 12.8577 203.462 12.6808C202.913 12.504 202.418 12.2741 201.976 11.9911C201.552 11.7081 201.216 11.3544 200.968 10.9299C200.72 10.4878 200.597 9.97488 200.597 9.39124C200.597 8.63075 200.782 7.96752 201.154 7.40157C201.543 6.81794 202.091 6.36695 202.799 6.0486C203.506 5.71257 204.337 5.54455 205.292 5.54455C206.654 5.54455 207.768 5.88942 208.635 6.57918C209.501 7.25124 210.006 8.24166 210.147 9.55042H208.29C208.219 8.82529 207.919 8.2505 207.388 7.82604C206.857 7.40157 206.141 7.18934 205.239 7.18934C204.355 7.18934 203.674 7.37504 203.196 7.74645C202.737 8.10017 202.507 8.58653 202.507 9.20554C202.507 9.59463 202.63 9.93066 202.878 10.2136C203.126 10.4966 203.488 10.7442 203.966 10.9564C204.461 11.151 205.062 11.319 205.77 11.4605C206.619 11.6197 207.397 11.8319 208.104 12.0972C208.829 12.3448 209.413 12.7339 209.855 13.2645C210.315 13.7774 210.545 14.5113 210.545 15.4664C210.563 16.2622 210.368 16.9697 209.961 17.5887C209.555 18.2077 208.98 18.6941 208.237 19.0478C207.494 19.3838 206.619 19.5518 205.611 19.5518Z" fill="white"/>
</svg>
